<svg width="78" height="78" viewBox="0 0 78 78" fill="none" xmlns="http://www.w3.org/2000/svg">
<path d="M39 0C17.4964 0 0 17.4964 0 39C0 60.5036 17.4964 78 39 78C60.5036 78 78 60.5036 78 39C78 17.4964 60.5036 0 39 0ZM39 6C57.2609 6 72 20.7391 72 39C72 55.598 59.8054 69.2461 43.875 71.6016V48.5391H53.1914L54.6562 39.082H43.875V33.9023C43.875 29.9723 45.154 26.4844 48.832 26.4844H54.7383V18.2227C53.7003 18.0847 51.5075 17.7773 47.3555 17.7773C38.6915 17.7773 33.6094 22.3553 33.6094 32.7773V39.0703H24.7031V48.5391H33.6211V71.5195C17.9387 68.9527 6 55.4224 6 39C6 20.7391 20.7391 6 39 6Z" fill="black"/>
</svg>
