<svg width="52" height="52" viewBox="0 0 52 52" fill="none" xmlns="http://www.w3.org/2000/svg">
<path d="M47.2452 21.7566H45.5V21.6667H26V30.3333H38.2449C36.4585 35.3784 31.6582 39 26 39C18.8207 39 13 33.1792 13 26C13 18.8207 18.8207 13 26 13C29.3139 13 32.3288 14.2502 34.6244 16.2922L40.7528 10.1638C36.8832 6.55741 31.707 4.33333 26 4.33333C14.0346 4.33333 4.33333 14.0346 4.33333 26C4.33333 37.9654 14.0346 47.6667 26 47.6667C37.9654 47.6667 47.6667 37.9654 47.6667 26C47.6667 24.5472 47.5172 23.1292 47.2452 21.7566Z" fill="#FFC107"/>
<path d="M6.8315 15.9152L13.9501 21.1358C15.8762 16.367 20.5411 13 26 13C29.3139 13 32.3288 14.2502 34.6244 16.2922L40.7528 10.1638C36.8832 6.55741 31.707 4.33333 26 4.33333C17.6778 4.33333 10.4607 9.03174 6.8315 15.9152Z" fill="#FF3D00"/>
<path d="M26 47.6667C31.5965 47.6667 36.6817 45.5249 40.5264 42.042L33.8206 36.3675C31.6452 38.0152 28.9412 39 26 39C20.3645 39 15.5794 35.4066 13.7767 30.3918L6.71124 35.8356C10.2971 42.8523 17.5792 47.6667 26 47.6667Z" fill="#4CAF50"/>
<path d="M47.2452 21.7566H45.5V21.6667H26V30.3333H38.2449C37.3869 32.7568 35.828 34.8465 33.8173 36.3686L33.8206 36.3664L40.5264 42.0409C40.0519 42.4721 47.6667 36.8333 47.6667 26C47.6667 24.5473 47.5172 23.1292 47.2452 21.7566Z" fill="#1976D2"/>
</svg>
