<svg width="78" height="78" viewBox="0 0 78 78" fill="none" xmlns="http://www.w3.org/2000/svg">
<path d="M22.6406 0C10.1719 0 0 10.1719 0 22.6406V55.3828C0 67.8281 10.1719 78 22.6406 78H55.3828C67.8281 78 78 67.8281 78 55.3594V22.6406C78 10.1719 67.8281 0 55.3594 0H22.6406ZM22.6406 6H55.3594C64.5938 6 72 13.4062 72 22.6406V55.3594C72 64.5938 64.5938 72 55.3828 72H22.6406C13.4062 72 6 64.5938 6 55.3828V22.6406C6 13.4062 13.4062 6 22.6406 6ZM63 12C61.3359 12 60 13.3359 60 15C60 16.6641 61.3359 18 63 18C64.6641 18 66 16.6641 66 15C66 13.3359 64.6641 12 63 12ZM39 18C27.4453 18 18 27.4453 18 39C18 50.5547 27.4453 60 39 60C50.5547 60 60 50.5547 60 39C60 27.4453 50.5547 18 39 18ZM39 24C47.3203 24 54 30.6797 54 39C54 47.3203 47.3203 54 39 54C30.6797 54 24 47.3203 24 39C24 30.6797 30.6797 24 39 24Z" fill="black"/>
</svg>
