<svg width="100" height="96" viewBox="0 0 100 96" fill="none" xmlns="http://www.w3.org/2000/svg">
<path d="M65.0357 0.691284C46.0045 0.691284 30.5098 15.4702 30.5098 33.6222C30.5098 41.3689 33.4469 48.4297 38.1822 54.0611L0 90.4794L5.39471 95.6821L43.6069 59.2351C49.5111 63.7517 56.9138 66.5531 65.0358 66.5531C84.067 66.5531 99.5616 51.7742 99.5616 33.6222C99.5616 15.4702 84.0669 0.691284 65.0357 0.691284ZM65.0357 8.00926C79.901 8.00926 91.8892 19.4436 91.8892 33.6222C91.8892 47.8008 79.901 59.2351 65.0357 59.2351C50.1704 59.2351 38.1822 47.8008 38.1822 33.6222C38.1822 19.4436 50.1704 8.00926 65.0357 8.00926Z" fill="white"/>
</svg>
