<svg width="84" height="66" viewBox="0 0 84 66" fill="none" xmlns="http://www.w3.org/2000/svg">
<path d="M84 7.78125C80.8594 9.14063 77.6953 10.1484 74.2031 10.4766C77.6953 8.46094 80.5078 5.0625 81.8906 1.35938C78.3984 3.375 74.9062 4.73438 71.0625 5.41406C67.5469 2.03906 63 0 58.1016 0C48.6562 0 40.9453 7.45313 40.9453 16.5938C40.9453 17.9297 40.9453 19.2891 41.2969 20.3203C23.25 20.3203 10.875 10.1484 2.48438 0C0.726564 2.36719 0.0234361 5.41406 0.0234361 8.46094C0.0234361 14.2031 3.1875 19.2891 7.73438 22.3359C4.92188 22.0078 2.13281 21.3281 0.0234361 20.3203C0.0234361 20.3203 0.0234361 20.3203 0.0234361 20.6484C0.0234361 28.7812 5.97656 35.5313 13.6875 36.8906C12.2812 37.2188 10.875 37.5703 9.11719 37.5703C8.08594 37.5703 7.03125 37.5703 5.97656 37.2422C8.08594 44.0156 17.8594 51.7969 25.5469 51.7969C19.5938 56.1797 14.0625 60 3 60C1.59375 60 2.71875 60 0 60C7.6875 64.7344 16.8047 66 26.25 66C58.1016 66 75.2578 40.6172 75.2578 18.6094C75.2578 17.9297 75.2578 17.2734 75.2578 16.5938C78.75 14.2031 81.5625 11.1797 84 7.78125Z" fill="black"/>
</svg>
